<svg t="1725596713424" class="icon" viewBox="0 0 1024 1024" version="1.1" xmlns="http://www.w3.org/2000/svg" p-id="1022" width="200" height="200"><path d="M1024 938.666667v85.333333H42.666667v-85.333333h981.333333zM384 0a85.333333 85.333333 0 0 1 85.333333 85.333333v682.666667a85.333333 85.333333 0 0 1-85.333333 85.333333H213.333333a85.333333 85.333333 0 0 1-85.333333-85.333333V85.333333a85.333333 85.333333 0 0 1 85.333333-85.333333h170.666667z m469.333333 256a85.333333 85.333333 0 0 1 85.333334 85.333333v426.666667a85.333333 85.333333 0 0 1-85.333334 85.333333h-170.666666a85.333333 85.333333 0 0 1-85.333334-85.333333V341.333333a85.333333 85.333333 0 0 1 85.333334-85.333333h170.666666z m0 85.333333h-170.666666v170.666667h170.666666V341.333333zM384 85.333333H213.333333v298.666667h170.666667V85.333333z" p-id="1023"></path></svg>